<svg xmlns="http://www.w3.org/2000/svg" version="1.1" xmlns:xlink="http://www.w3.org/1999/xlink" xmlns:svgjs="http://svgjs.com/svgjs" width="1440" height="560" preserveAspectRatio="none" viewBox="0 0 1440 560"><g mask="url(&quot;#SvgjsMask8236&quot;)" fill="none"><rect width="1440" height="560" x="0" y="0" fill="url(#SvgjsLinearGradient8237)"></rect><use xlink:href="#SvgjsSymbol8244" x="0" y="0"></use><use xlink:href="#SvgjsSymbol8244" x="720" y="0"></use></g><defs><mask id="SvgjsMask8236"><rect width="1440" height="560" fill="#ffffff"></rect></mask><linearGradient x1="15.28%" y1="-39.29%" x2="84.72%" y2="139.29%" gradientUnits="userSpaceOnUse" id="SvgjsLinearGradient8237"><stop stop-color="rgba(248, 249, 254, 1)" offset="0.06"></stop><stop stop-color="rgba(36, 58, 119, 0.32)" offset="1"></stop></linearGradient><path d="M-1 0 a1 1 0 1 0 2 0 a1 1 0 1 0 -2 0z" id="SvgjsPath8238"></path><path d="M-3 0 a3 3 0 1 0 6 0 a3 3 0 1 0 -6 0z" id="SvgjsPath8243"></path><path d="M-5 0 a5 5 0 1 0 10 0 a5 5 0 1 0 -10 0z" id="SvgjsPath8240"></path><path d="M2 -2 L-2 2z" id="SvgjsPath8242"></path><path d="M6 -6 L-6 6z" id="SvgjsPath8241"></path><path d="M30 -30 L-30 30z" id="SvgjsPath8239"></path></defs><symbol id="SvgjsSymbol8244"><use xlink:href="#SvgjsPath8238" x="30" y="30" stroke="rgba(148, 159, 238, 1)"></use><use xlink:href="#SvgjsPath8239" x="30" y="90" stroke="rgba(148, 159, 238, 1)" stroke-width="3"></use><use xlink:href="#SvgjsPath8240" x="30" y="150" stroke="rgba(148, 159, 238, 1)"></use><use xlink:href="#SvgjsPath8238" x="30" y="210" stroke="rgba(148, 159, 238, 1)"></use><use xlink:href="#SvgjsPath8240" x="30" y="270" stroke="rgba(148, 159, 238, 1)"></use><use xlink:href="#SvgjsPath8240" x="30" y="330" stroke="rgba(148, 159, 238, 1)"></use><use xlink:href="#SvgjsPath8240" x="30" y="390" stroke="rgba(148, 159, 238, 1)"></use><use xlink:href="#SvgjsPath8240" x="30" y="450" stroke="rgba(148, 159, 238, 1)"></use><use xlink:href="#SvgjsPath8241" x="30" y="510" stroke="rgba(148, 159, 238, 1)"></use><use xlink:href="#SvgjsPath8242" x="30" y="570" stroke="rgba(148, 159, 238, 1)"></use><use xlink:href="#SvgjsPath8240" x="90" y="30" stroke="rgba(148, 159, 238, 1)"></use><use xlink:href="#SvgjsPath8240" x="90" y="90" stroke="rgba(148, 159, 238, 1)"></use><use xlink:href="#SvgjsPath8238" x="90" y="150" stroke="rgba(148, 159, 238, 1)"></use><use xlink:href="#SvgjsPath8240" x="90" y="210" stroke="rgba(148, 159, 238, 1)"></use><use xlink:href="#SvgjsPath8241" x="90" y="270" stroke="rgba(148, 159, 238, 1)"></use><use xlink:href="#SvgjsPath8240" x="90" y="330" stroke="rgba(148, 159, 238, 1)"></use><use xlink:href="#SvgjsPath8240" x="90" y="390" stroke="rgba(148, 159, 238, 1)"></use><use xlink:href="#SvgjsPath8238" x="90" y="450" stroke="rgba(148, 159, 238, 1)"></use><use xlink:href="#SvgjsPath8241" x="90" y="510" stroke="rgba(148, 159, 238, 1)"></use><use xlink:href="#SvgjsPath8240" x="90" y="570" stroke="rgba(148, 159, 238, 1)"></use><use xlink:href="#SvgjsPath8242" x="150" y="30" stroke="rgba(148, 159, 238, 1)"></use><use xlink:href="#SvgjsPath8241" x="150" y="90" stroke="rgba(148, 159, 238, 1)"></use><use xlink:href="#SvgjsPath8243" x="150" y="150" stroke="rgba(148, 159, 238, 1)"></use><use xlink:href="#SvgjsPath8241" x="150" y="210" stroke="rgba(148, 159, 238, 1)"></use><use xlink:href="#SvgjsPath8240" x="150" y="270" stroke="rgba(148, 159, 238, 1)"></use><use xlink:href="#SvgjsPath8243" x="150" y="330" stroke="rgba(148, 159, 238, 1)"></use><use xlink:href="#SvgjsPath8239" x="150" y="390" stroke="rgba(148, 159, 238, 1)" stroke-width="3"></use><use xlink:href="#SvgjsPath8242" x="150" y="450" stroke="rgba(148, 159, 238, 1)"></use><use xlink:href="#SvgjsPath8242" x="150" y="510" stroke="rgba(148, 159, 238, 1)"></use><use xlink:href="#SvgjsPath8240" x="150" y="570" stroke="rgba(148, 159, 238, 1)"></use><use xlink:href="#SvgjsPath8241" x="210" y="30" stroke="rgba(148, 159, 238, 1)"></use><use xlink:href="#SvgjsPath8241" x="210" y="90" stroke="rgba(148, 159, 238, 1)"></use><use xlink:href="#SvgjsPath8241" x="210" y="150" stroke="rgba(148, 159, 238, 1)"></use><use xlink:href="#SvgjsPath8241" x="210" y="210" stroke="rgba(148, 159, 238, 1)"></use><use xlink:href="#SvgjsPath8240" x="210" y="270" stroke="rgba(148, 159, 238, 1)"></use><use xlink:href="#SvgjsPath8240" x="210" y="330" stroke="rgba(148, 159, 238, 1)"></use><use xlink:href="#SvgjsPath8241" x="210" y="390" stroke="rgba(148, 159, 238, 1)"></use><use xlink:href="#SvgjsPath8242" x="210" y="450" stroke="rgba(148, 159, 238, 1)"></use><use xlink:href="#SvgjsPath8241" x="210" y="510" stroke="rgba(148, 159, 238, 1)"></use><use xlink:href="#SvgjsPath8240" x="210" y="570" stroke="rgba(148, 159, 238, 1)"></use><use xlink:href="#SvgjsPath8240" x="270" y="30" stroke="rgba(148, 159, 238, 1)"></use><use xlink:href="#SvgjsPath8240" x="270" y="90" stroke="rgba(148, 159, 238, 1)"></use><use xlink:href="#SvgjsPath8241" x="270" y="150" stroke="rgba(148, 159, 238, 1)"></use><use xlink:href="#SvgjsPath8241" x="270" y="210" stroke="rgba(148, 159, 238, 1)"></use><use xlink:href="#SvgjsPath8240" x="270" y="270" stroke="rgba(148, 159, 238, 1)"></use><use xlink:href="#SvgjsPath8240" x="270" y="330" stroke="rgba(148, 159, 238, 1)"></use><use xlink:href="#SvgjsPath8242" x="270" y="390" stroke="rgba(148, 159, 238, 1)"></use><use xlink:href="#SvgjsPath8241" x="270" y="450" stroke="rgba(148, 159, 238, 1)"></use><use xlink:href="#SvgjsPath8243" x="270" y="510" stroke="rgba(148, 159, 238, 1)"></use><use xlink:href="#SvgjsPath8243" x="270" y="570" stroke="rgba(148, 159, 238, 1)"></use><use xlink:href="#SvgjsPath8243" x="330" y="30" stroke="rgba(148, 159, 238, 1)"></use><use xlink:href="#SvgjsPath8241" x="330" y="90" stroke="rgba(148, 159, 238, 1)"></use><use xlink:href="#SvgjsPath8242" x="330" y="150" stroke="rgba(148, 159, 238, 1)"></use><use xlink:href="#SvgjsPath8243" x="330" y="210" stroke="rgba(148, 159, 238, 1)"></use><use xlink:href="#SvgjsPath8242" x="330" y="270" stroke="rgba(148, 159, 238, 1)"></use><use xlink:href="#SvgjsPath8241" x="330" y="330" stroke="rgba(148, 159, 238, 1)"></use><use xlink:href="#SvgjsPath8240" x="330" y="390" stroke="rgba(148, 159, 238, 1)"></use><use xlink:href="#SvgjsPath8240" x="330" y="450" stroke="rgba(148, 159, 238, 1)"></use><use xlink:href="#SvgjsPath8240" x="330" y="510" stroke="rgba(148, 159, 238, 1)"></use><use xlink:href="#SvgjsPath8242" x="330" y="570" stroke="rgba(148, 159, 238, 1)"></use><use xlink:href="#SvgjsPath8241" x="390" y="30" stroke="rgba(148, 159, 238, 1)"></use><use xlink:href="#SvgjsPath8241" x="390" y="90" stroke="rgba(148, 159, 238, 1)"></use><use xlink:href="#SvgjsPath8241" x="390" y="150" stroke="rgba(148, 159, 238, 1)"></use><use xlink:href="#SvgjsPath8242" x="390" y="210" stroke="rgba(148, 159, 238, 1)"></use><use xlink:href="#SvgjsPath8240" x="390" y="270" stroke="rgba(148, 159, 238, 1)"></use><use xlink:href="#SvgjsPath8240" x="390" y="330" stroke="rgba(148, 159, 238, 1)"></use><use xlink:href="#SvgjsPath8240" x="390" y="390" stroke="rgba(148, 159, 238, 1)"></use><use xlink:href="#SvgjsPath8240" x="390" y="450" stroke="rgba(148, 159, 238, 1)"></use><use xlink:href="#SvgjsPath8240" x="390" y="510" stroke="rgba(148, 159, 238, 1)"></use><use xlink:href="#SvgjsPath8240" x="390" y="570" stroke="rgba(148, 159, 238, 1)"></use><use xlink:href="#SvgjsPath8242" x="450" y="30" stroke="rgba(148, 159, 238, 1)"></use><use xlink:href="#SvgjsPath8240" x="450" y="90" stroke="rgba(148, 159, 238, 1)"></use><use xlink:href="#SvgjsPath8242" x="450" y="150" stroke="rgba(148, 159, 238, 1)"></use><use xlink:href="#SvgjsPath8240" x="450" y="210" stroke="rgba(148, 159, 238, 1)"></use><use xlink:href="#SvgjsPath8241" x="450" y="270" stroke="rgba(148, 159, 238, 1)"></use><use xlink:href="#SvgjsPath8240" x="450" y="330" stroke="rgba(148, 159, 238, 1)"></use><use xlink:href="#SvgjsPath8243" x="450" y="390" stroke="rgba(148, 159, 238, 1)"></use><use xlink:href="#SvgjsPath8240" x="450" y="450" stroke="rgba(148, 159, 238, 1)"></use><use xlink:href="#SvgjsPath8238" x="450" y="510" stroke="rgba(148, 159, 238, 1)"></use><use xlink:href="#SvgjsPath8241" x="450" y="570" stroke="rgba(148, 159, 238, 1)"></use><use xlink:href="#SvgjsPath8238" x="510" y="30" stroke="rgba(148, 159, 238, 1)"></use><use xlink:href="#SvgjsPath8241" x="510" y="90" stroke="rgba(148, 159, 238, 1)"></use><use xlink:href="#SvgjsPath8240" x="510" y="150" stroke="rgba(148, 159, 238, 1)"></use><use xlink:href="#SvgjsPath8242" x="510" y="210" stroke="rgba(148, 159, 238, 1)"></use><use xlink:href="#SvgjsPath8241" x="510" y="270" stroke="rgba(148, 159, 238, 1)"></use><use xlink:href="#SvgjsPath8241" x="510" y="330" stroke="rgba(148, 159, 238, 1)"></use><use xlink:href="#SvgjsPath8238" x="510" y="390" stroke="rgba(148, 159, 238, 1)"></use><use xlink:href="#SvgjsPath8238" x="510" y="450" stroke="rgba(148, 159, 238, 1)"></use><use xlink:href="#SvgjsPath8241" x="510" y="510" stroke="rgba(148, 159, 238, 1)"></use><use xlink:href="#SvgjsPath8241" x="510" y="570" stroke="rgba(148, 159, 238, 1)"></use><use xlink:href="#SvgjsPath8241" x="570" y="30" stroke="rgba(148, 159, 238, 1)"></use><use xlink:href="#SvgjsPath8242" x="570" y="90" stroke="rgba(148, 159, 238, 1)"></use><use xlink:href="#SvgjsPath8241" x="570" y="150" stroke="rgba(148, 159, 238, 1)"></use><use xlink:href="#SvgjsPath8242" x="570" y="210" stroke="rgba(148, 159, 238, 1)"></use><use xlink:href="#SvgjsPath8239" x="570" y="270" stroke="rgba(148, 159, 238, 1)" stroke-width="3"></use><use xlink:href="#SvgjsPath8243" x="570" y="330" stroke="rgba(148, 159, 238, 1)"></use><use xlink:href="#SvgjsPath8243" x="570" y="390" stroke="rgba(148, 159, 238, 1)"></use><use xlink:href="#SvgjsPath8240" x="570" y="450" stroke="rgba(148, 159, 238, 1)"></use><use xlink:href="#SvgjsPath8240" x="570" y="510" stroke="rgba(148, 159, 238, 1)"></use><use xlink:href="#SvgjsPath8240" x="570" y="570" stroke="rgba(148, 159, 238, 1)"></use><use xlink:href="#SvgjsPath8241" x="630" y="30" stroke="rgba(148, 159, 238, 1)"></use><use xlink:href="#SvgjsPath8241" x="630" y="90" stroke="rgba(148, 159, 238, 1)"></use><use xlink:href="#SvgjsPath8241" x="630" y="150" stroke="rgba(148, 159, 238, 1)"></use><use xlink:href="#SvgjsPath8240" x="630" y="210" stroke="rgba(148, 159, 238, 1)"></use><use xlink:href="#SvgjsPath8241" x="630" y="270" stroke="rgba(148, 159, 238, 1)"></use><use xlink:href="#SvgjsPath8238" x="630" y="330" stroke="rgba(148, 159, 238, 1)"></use><use xlink:href="#SvgjsPath8241" x="630" y="390" stroke="rgba(148, 159, 238, 1)"></use><use xlink:href="#SvgjsPath8241" x="630" y="450" stroke="rgba(148, 159, 238, 1)"></use><use xlink:href="#SvgjsPath8238" x="630" y="510" stroke="rgba(148, 159, 238, 1)"></use><use xlink:href="#SvgjsPath8238" x="630" y="570" stroke="rgba(148, 159, 238, 1)"></use><use xlink:href="#SvgjsPath8241" x="690" y="30" stroke="rgba(148, 159, 238, 1)"></use><use xlink:href="#SvgjsPath8240" x="690" y="90" stroke="rgba(148, 159, 238, 1)"></use><use xlink:href="#SvgjsPath8240" x="690" y="150" stroke="rgba(148, 159, 238, 1)"></use><use xlink:href="#SvgjsPath8238" x="690" y="210" stroke="rgba(148, 159, 238, 1)"></use><use xlink:href="#SvgjsPath8239" x="690" y="270" stroke="rgba(148, 159, 238, 1)" stroke-width="3"></use><use xlink:href="#SvgjsPath8242" x="690" y="330" stroke="rgba(148, 159, 238, 1)"></use><use xlink:href="#SvgjsPath8243" x="690" y="390" stroke="rgba(148, 159, 238, 1)"></use><use xlink:href="#SvgjsPath8240" x="690" y="450" stroke="rgba(148, 159, 238, 1)"></use><use xlink:href="#SvgjsPath8240" x="690" y="510" stroke="rgba(148, 159, 238, 1)"></use><use xlink:href="#SvgjsPath8241" x="690" y="570" stroke="rgba(148, 159, 238, 1)"></use></symbol></svg>